<?xml version="1.0" encoding="UTF-8" standalone="no"?><!DOCTYPE svg PUBLIC "-//W3C//DTD SVG 1.1//EN" "http://www.w3.org/Graphics/SVG/1.1/DTD/svg11.dtd"><svg width="100%" height="100%" viewBox="0 0 3000 3000" version="1.1" xmlns="http://www.w3.org/2000/svg" xmlns:xlink="http://www.w3.org/1999/xlink" xml:space="preserve" xmlns:serif="http://www.serif.com/" style="fill-rule:evenodd;clip-rule:evenodd;stroke-linejoin:round;stroke-miterlimit:2;"><g id="Background"><path d="M1918.149,1270.897c0.193,-0.147 0.79,-2.943 4.575,-3.474c0.234,-0.033 0.555,-0.078 2.954,-0.134c15.615,-0.368 88.822,-2.705 90.696,67.471c0.232,8.677 -2.162,36.441 -2.737,40.842c-4.861,37.222 -3.118,45.279 -5.842,69.852c-0.488,4.403 -3.364,30.335 -4.45,55.197c-1.785,40.843 -7.194,64.999 -4.642,107.756c2.43,40.724 6.77,51.767 11.645,63.96c3.411,8.531 10.816,6.861 14.202,7.217c7.725,0.812 21.288,4.467 23.151,5.232c24.188,9.939 24.968,29.687 28.519,40.343c3.349,10.05 2.822,10.159 5.66,20.374c6.603,23.771 6.158,23.879 6.751,25.94c4.394,15.253 3.579,15.714 6.218,26.094c5.849,23.003 4.861,24.268 7.688,35.201c4.556,17.618 3.413,20.025 5.766,29.126c4.678,18.088 2.559,18.495 6.82,34.677c3.637,13.812 1.898,14.113 6.406,34.806c3.233,14.843 6.321,45.768 10.598,49.942c0.906,0.884 1.223,1.194 14.418,6.53c4.303,1.74 4.368,1.47 8.693,3.167c6.623,2.599 6.419,2.923 14.565,5.894c7.303,3.063 7.238,3.089 14.654,5.733c10.372,3.697 9.982,4.536 20.288,8.495c38.937,14.957 74.405,31.161 88.44,38.341c20.142,10.063 20.257,11.431 22.577,10.094c1.992,-1.148 1.612,-10.626 1.575,-11.558c-1.176,-29.375 4.916,-71.125 7.927,-84.255c6.812,-29.701 16.905,-62.859 46.867,-89.17c5.014,-3.508 23.217,-20.899 65.944,-23.287c15.607,-0.872 37.129,6.744 38.001,7.109c7.278,3.046 20.412,8.528 34.217,21.349c37.094,34.452 43.368,83.56 46.371,98.518c6.268,31.223 3.417,95.097 1.787,99.16c-3.271,8.154 -37.039,12.173 -47.616,12.017c-9.617,-0.142 -13.218,0.025 -11.829,-9.461c0.743,-5.073 2.833,-19.339 2.95,-64.019c0.149,-57.231 -4.912,-69.999 -6.604,-81.348c-2.808,-18.844 -16.233,-58.992 -39.411,-70.75c-15.087,-7.654 -25.964,-5.388 -36.506,20.639c-5.027,14.28 -5.05,14.266 -5.193,14.857c-3.12,12.918 -5.425,29.516 -5.784,32.101c-1.286,9.263 -0.955,37.852 -0.954,37.861c0.354,8.819 6.311,54.821 22.512,81.179c13.023,21.189 21.545,29.667 43.332,40.297c16.427,5.579 32.629,10.688 66.534,3.398c4.06,-0.873 23.357,-5.023 46.412,-23.236c23.408,-18.493 33.642,-36.66 42.002,-51.503c1.883,-3.131 1.817,-3.152 2.034,-3.382c5.297,-5.611 9.148,-1.257 6.405,5.962c-1.669,4.393 -10.841,19.045 -13.214,22.468c-28.029,40.432 -62.856,52.191 -63.436,52.486c-6.491,3.31 -4.757,5.435 -9.066,20.673c-16.93,59.877 -50.853,78.939 -52.758,80.284c-13.494,7.939 -20.392,9.827 -22.288,10.346c-15.634,4.28 -21.5,4.696 -23.408,4.832c-24.322,1.727 -33.235,-1.268 -46.54,-4.932c-1.512,-0.416 -8.417,-2.318 -18.064,-7.603c-32.839,-17.989 -45.419,-41.941 -54.524,-62.435c-13.707,-30.857 -11.835,-59.031 -16.744,-64.683c-4.663,-5.369 -48.363,-27.529 -90.623,-44.365c-11.063,-4.407 -15.955,-10.372 -18.448,1.296c-3.114,14.572 -4.271,14.261 -6.673,28.938c-2.093,8.187 -2.087,8.133 -2.26,8.842c-2.195,8.965 -8.938,48.072 -9.069,49.551c-1.969,22.333 -2.707,22.235 -3.207,37.886c-0.881,27.566 -0.769,29.083 3.878,32.53c2.979,2.21 4.273,1.853 3.701,5.502c-0.2,1.277 -5.493,5.586 -6.021,6.016c-6.607,5.379 -11.95,8.309 -21.195,12.957c-27.665,8.525 -39.038,-1.557 -47.075,-12.52c-10.654,-14.531 -16.967,-48.038 -22.169,-67.715c-7.064,-26.724 -13.708,-57.943 -13.848,-58.43c-4.446,-15.451 -2.981,-15.763 -5.936,-26.16c-4.067,-14.308 -2.858,-14.55 -6.68,-28.87c-3.835,-14.37 -3.157,-14.477 -6.486,-28.951c-3.162,-13.753 -5.188,-17.256 -2.078,-17.727c4.76,-0.72 4.567,0.509 8.894,2.697c7.367,3.725 7.612,3.019 11.926,5.204c7.39,3.742 7.539,3.382 46.163,18.354c6.427,2.491 5.769,7.19 9.066,26.141c1.826,12.137 3.408,14.809 6.073,31.975c2.061,13.273 3.039,13.034 5.527,26.242c2.226,11.818 2.46,11.725 5.331,23.396c1.895,8.605 1.648,8.62 4.183,17.086c7.582,25.321 7.846,31.471 8.478,31.671c0.859,0.273 1.468,-1.649 2.326,-1.376c0.703,-0.359 1.406,-0.718 2.109,-1.077c0.427,-16.077 5.146,-56.998 5.978,-61.001c2.681,-12.899 2.193,-12.932 3.962,-26.03c1.579,-11.685 2.21,-11.534 3.824,-20.698c4.583,-26.021 4.436,-26.445 3.682,-28.628c-1.622,-4.688 -24.319,-10.988 -34.172,-15.177c-39.322,-16.721 -72.86,-29.345 -98.674,-41.39c-22.427,-10.465 -22.634,-9.974 -44.463,-21.682c-98.479,-52.821 -114.557,-95.638 -122.276,-116.915c-6.572,-18.117 -4.593,-49.021 -3.208,-58.438c5.482,-37.265 30.288,-56.103 30.991,-56.725c3.335,-2.475 3.318,-2.453 3.601,-2.673c18.491,-14.41 24.17,-11.185 25.204,-15.961c0.666,-3.079 -0.136,-2.973 -1.257,-5.946c-1.622,-4.301 -1.779,-4.193 -3.492,-8.483c-3.869,-9.686 -8.515,-31.343 -8.659,-32.255c-10.226,-64.942 -4.308,-133.866 -4.111,-139.834c1.857,-56.307 2.649,-56.253 2.775,-61.148c1.647,-64.015 4.142,-125.633 -10.655,-159.65c-1.949,-4.48 -1.936,-4.419 -3.482,-9.047l9.832,438.493c-10.571,8.233 -10.494,8.363 -17.622,17.799c-14.218,18.822 -15.642,45.918 -15.862,50.118c-1.113,21.191 -3.184,61.9 58.371,112.318c11.572,9.478 46.034,32.894 79.996,49.126c0.94,0.449 0.825,0.579 11.676,5.775c0.507,0.242 5.402,2.586 6.547,2.531c0.385,-0.019 3.076,-0.148 2.882,-3.858c-0.136,-2.603 -1.404,-2.303 -7.178,-31.784c-0.415,-2.119 -4.133,-14.998 -5.511,-23.363c-0.839,-5.091 -19.886,-86.71 -20.031,-87.377c-2.557,-11.732 -3.416,-11.466 -6.094,-23.215c-1.633,-7.167 -15.627,-50.171 -20.214,-54.882c-4.722,-4.849 -19.271,-1.135 -36.919,-21.253c-4.164,-4.747 -6.288,-6.244 -21.148,2.192c-4.675,2.654 -4.588,2.673 -8.893,5.875l-9.832,-438.493l513.926,931.924c6.016,1.492 33.982,13.426 54.392,-53.278c1.476,-4.824 7.612,-31.419 7.634,-31.546c1.622,-9.198 2.371,-11.923 -6.756,-13.766c-21.2,-4.281 -34.362,-14.437 -36.921,-16.412c-38.436,-29.658 -46.337,-84.858 -48.031,-92.033c-4.366,-18.493 -4.19,-51.036 -1.224,-72.843c0.815,-5.993 4.671,-24.252 5.268,-26.233c3.75,-12.453 4.18,-12.25 10.19,-23.768c0.219,-0.42 3.344,-6.41 -1.893,-5.607c-1.314,0.201 -5.817,5.719 -9.264,11.382c-9.048,14.868 -11.526,23.99 -14.979,35.047c-0.929,2.975 -3.184,10.195 -8.312,38.056c-0.972,5.281 -7.249,70.244 -4.763,113.621c2.886,50.344 4.951,53.593 8.71,69.787c6.664,28.713 15.981,40.614 18.621,44.648c10.698,16.349 19.207,19.476 27.328,22.946l-513.926,-931.924Z" style="fill:#301e14;fill-opacity:1;"/><path d="M307.155,1056.295c16.081,0.009 16.1,-0.577 32,1.642c14.996,2.093 18.471,-1.501 37.919,2.83c15.866,3.534 16.115,2.316 31.646,7.145c0.094,0.029 26.184,5.945 52.952,18.902c32.917,15.933 38.582,21.485 40.717,32.494c2.592,13.367 -3.624,42.699 -4.396,46.342c-5.679,26.799 -9.434,34.984 -15.618,49.997c-4.874,11.834 -10.99,21.43 -12.115,23.196c-1.14,-0.139 -2.163,1.119 -3.304,0.98c-4.509,-0.549 0.532,-11.639 -11.346,-56.435c-3.106,-11.714 -13.477,-37.909 -21.022,-49.077c-5.902,-8.736 -11.767,-19.689 -30.635,-36.225c-10.623,-9.31 -25.147,-17.947 -38.51,-22.66c-6.413,-2.262 -6.084,-3.529 -37.87,-8.928c-12.94,-2.198 -32.104,0.833 -34.86,1.269c-5.871,0.929 -31.469,2.762 -58.644,19.114c-25.159,15.139 -37.701,36.504 -38.506,37.697c-10.221,17.317 -9.75,17.526 -14.933,32.155c-3.589,10.128 -4.051,9.985 -5.526,20.657c-2.276,16.47 -15.68,61.147 23.687,99.8c35.417,34.775 97.587,51.481 137.535,66.064c12.114,4.423 91.192,28.115 124.585,56.173c20.675,17.372 32.933,33.365 43.921,57.739c0.907,2.013 6.18,13.707 9.141,26.037c0.601,2.502 1.466,7.997 2.373,11.755c2.533,10.496 -4.618,5.719 -14.358,4.029c-26.17,-4.541 -26.028,-5.145 -52.38,-8.712c-8.61,-1.165 -8.513,-1.549 -17.135,-2.618c-9.646,-1.197 -9.872,-1.397 -17.065,-7.955c-47.473,-43.281 -117.875,-57.858 -149.15,-68.911c-7.886,-2.787 -86.237,-25.682 -132.586,-79.968c-3.198,-3.746 -17.288,-23.062 -21.544,-33.914c-5.157,-13.151 -5.512,-13.033 -9.141,-29.011c-3.509,-15.448 -3.147,-45.55 -0.181,-61.317c1.676,-8.908 7.102,-47.552 32.701,-75.502c3.69,-4.029 5.614,-3.273 5.451,-8.73c-0.018,-0.597 0.377,-1.565 -0.179,-1.783c-3.226,-1.266 -21.964,17.418 -32.287,27.158c-48.945,46.179 -54.59,91.754 -57.978,120.045c-2.144,17.902 -0.5,55.207 14.274,84.832c7.1,14.238 22.546,43.983 73.193,72.912c26.61,15.199 54.646,23.603 58.74,25.151c9.036,3.417 10.248,2.56 20.216,6.227c6.915,2.544 57.939,14.418 63.88,15.343c20.591,3.206 20.331,4.322 40.987,7.276c3.031,0.433 2.889,1.062 37.786,6.121c11.653,1.689 11.67,1.358 23.163,3.764c21.819,3.236 21.978,1.88 43.555,6.215c5.889,1.183 51.389,6.884 78.759,13.889c11.621,2.974 11.677,2.607 23.205,6.063c22.023,6.602 21.943,6.75 41.381,16.131c1.631,0.949 14.437,8.4 19.406,13.419c0.374,0.378 6.134,6.196 6.611,-0.638c0.146,-2.096 -0.365,-2.092 0.52,-26.256c0.355,-9.688 0.349,-36.571 2.156,-66.994c0.249,-4.191 0.68,-11.45 1.984,-52.44c1.24,-38.978 -0.86,-80.921 -6.141,-101.555c-4.587,-17.92 -8.329,-22.945 -8.478,-23.349c-0.349,-0.948 -0.397,-1.989 -0.746,-2.936c0.076,-0.06 0.928,-2.929 4.462,-3.494c0.465,-0.074 0.436,-0.016 5.885,-0.217c19.231,0.166 78.407,-0.018 86.692,56c2.412,16.312 0.761,16.346 -1.439,52.355c-0.171,2.802 -1.067,17.449 -3.004,34.959c-2.889,26.112 -2.626,26.092 -4.277,52.272c-1.011,16.039 -1.052,15.986 -2.871,31.997c-0.161,1.416 -4.657,69.975 -4.759,84.496c-0.374,53.61 4.294,69.67 5.985,75.488c2.24,7.707 4.286,21.39 15.678,30.708c8.268,6.763 14.836,2.274 13.373,10.334c-0.886,4.883 -7.048,11.891 -7.841,12.792c-5.15,5.857 -5.317,5.783 -12.474,8.948c-2.031,0.777 -5.326,3.558 -18.048,3.134c-6.842,-0.228 -21.366,-3.934 -31.823,-13.582c-4.651,-4.291 -11.228,-12.846 -13.767,-17.758c-12.425,-24.034 -13.904,-40.902 -15.173,-46.125c-7.72,-31.782 -3.885,-68.191 -8.103,-76.074c-12.359,-23.095 -39.486,-32.308 -62.101,-40.466c-3.464,-1.25 -10.406,-4.426 -10.998,3.182c-0.84,10.792 0.078,15.803 -4.029,34.772c-0.283,1.309 -6.402,57.461 -58.525,101.13c-1.134,0.95 -3.446,2.887 -14.831,11.044c-35.015,21.693 -54.421,24.813 -77.596,30.692c-10.154,2.576 -60.826,9.155 -116.477,2.777c-3.033,-0.348 -41.569,-3.121 -81.402,-17.737c-0.255,-0.094 -13.261,-3.914 -34.706,-14.964c-39.36,-20.279 -39.76,-36.507 -33.896,-77.719c1.081,-7.599 6.907,-34.046 20.437,-69.409c0.185,-0.483 0.352,-0.4 2.702,-5.866c0.291,-0.747 3.281,-8.413 4.775,-8.806c4.114,-1.084 4.722,4.888 4.781,5.466c0.287,2.814 0.887,8.714 7.154,34.629c2.495,10.319 3.249,10.061 6.081,20.273c1.68,6.057 14.817,39.075 29.047,57.965c5.152,6.839 9.171,13.192 21.607,24.857c12.313,11.549 20.848,17.67 39.444,26.847c2.811,1.387 20.872,9.097 34.173,10.953c3.46,0.483 38.86,8.529 75.755,1.286c13.652,-2.68 22.096,-3.188 41.293,-13.142c14.224,-7.288 53.872,-28.403 67.21,-96.746c5.658,-28.991 0.015,-48.381 -1.156,-52.407c-3.118,-10.714 -3.328,-10.587 -8.02,-20.64c-5.467,-11.713 -9.492,-6.705 -55.456,-14.936c-13.264,-2.375 -13.475,-0.844 -37.804,-5.933c-8.951,-1.872 -15.889,-1.15 -34.951,-5.652c-7.689,-1.816 -18.071,-2.245 -32.046,-5.719c-17.233,-4.284 -117.753,-18.888 -181.39,-68.463c-15.117,-11.777 -50.953,-40.984 -60.535,-100.02c-1.971,-12.144 -2.51,-44.615 0.093,-61.18c17.788,-113.202 119.717,-158.82 152.127,-173.298c4.84,-2.162 37.275,-14.239 51.642,-16.621c28.799,-4.776 28.606,-6.443 61.296,-7.029Z" style="fill:#301e14;fill-opacity:1;"/><path d="M2139.122,1295.125c21.107,-15.771 30.524,-18.896 51.459,-24.572c10.448,-2.833 35.915,-4.231 52.272,-1.649c12.703,2.005 33.551,10.343 40.388,14.407c25.046,14.885 36.707,28.501 49.104,46.269c19.213,27.538 33.863,76.318 36.679,118.657c3.066,46.111 1.986,54.298 0.734,81.542c-1.142,17.428 -1.021,18.527 -6.875,21.499c-2.386,1.211 -8.137,4.13 -32.397,8.312c-9.001,1.552 -25.93,1.307 -29.092,0.98c-7.562,-0.78 -7.481,-2.917 -6.519,-10.439c0.769,-6.009 2.844,-22.235 3.881,-75.619c0.468,-24.095 -2.146,-68.115 -2.823,-72.846c-7.13,-49.781 -14.231,-68.262 -24.292,-87.014c-15.498,-28.886 -41.327,-42.1 -52.378,-36.177c-9.757,5.229 -12.239,7.975 -20.501,23.97c-1.004,2.29 -7.188,16.395 -9.896,29.648c-4.138,20.251 -6.564,32.197 -6.801,60.903c-0.289,35.017 3.161,45.255 6.286,61.012c0.817,4.117 5.662,28.546 16.427,49.828c1.078,2.132 7.688,15.199 15.771,25.361c22.209,27.922 46.488,34.629 48.709,35.476c5.049,1.71 13.836,5.716 40.722,5.565c21.518,-0.121 34.556,-3.283 37.487,-3.994c10.426,-2.529 34.347,-12.577 50.157,-24.347c15.75,-11.726 22.913,-18.834 34.268,-32.739c12.552,-15.372 16.758,-24.947 26.483,-40.562c1.142,-0.344 1.972,-1.417 3.113,-1.761c0.279,-0.084 1.879,-0.566 3.512,0.943c2.906,2.687 1.164,7.041 -1.419,12.229c-12.549,25.211 -30.179,44.305 -33.338,47.727c-26.155,28.327 -50.37,37.909 -58.619,41.251c-5.358,2.171 -7.251,2.093 -9.963,15.974c-3.517,17.999 -16.858,54.638 -33.412,76.429c-11.406,15.014 -13.083,13.493 -13.913,14.897c-0.182,0.307 -1.864,3.152 1.634,4.155c0.739,0.212 1.346,-0.824 2.106,-0.939c1.085,-0.165 2.193,0.104 3.291,0.118c1.977,0.026 19.99,-1.485 34.777,22.215c5.642,9.043 7.421,13.536 0.756,15.321c-6.298,1.687 -6.217,1.795 -12.216,4.302c-25.339,10.589 -44.599,52.921 -47.084,58.383c-3.702,8.138 -8.513,18.507 -9.258,20.114c-2.769,5.97 -15.041,32.422 -31.161,76.131c-12.922,35.038 -12.723,35.09 -13.995,38.076c-0.711,1.668 -0.653,1.687 -10.898,32.249c-15.083,44.997 -14.909,49.579 -17.576,55.455c-1.544,3.403 -5.085,2.713 -14.762,-1.648c-8.311,-3.745 -2.692,-12.253 0.742,-33.51c2.047,-12.672 4.938,-21.813 6.357,-29.522c2.7,-14.662 3.563,-14.406 6.495,-28.991c2.791,-13.884 15.386,-60.471 15.504,-60.881c8.462,-29.373 8.736,-29.284 9.449,-31.843c2.454,-8.806 11.671,-35.324 12.733,-38.379c16.893,-48.598 28.652,-64.862 32.259,-69.849c5.108,-7.064 4.964,-7.452 4.702,-8.158c-0.201,-0.541 -1.156,0.034 -1.733,-0.006c-0.889,-0.063 -1.806,-0.569 -2.657,-0.303c-1.19,0.373 -2.034,1.444 -3.092,2.104c-3.972,2.475 -13.948,6.756 -20.459,8.292c-26.396,6.227 -45.31,4.359 -49.243,3.97c-29.256,-2.89 -44.543,-10.929 -52.174,-14.922c-57.213,-29.933 -71.566,-86.787 -75.738,-98.601c-4.513,-12.778 -3.186,-14.103 -5.593,-23.33c-4.656,-17.85 -4.204,-27.338 -5.775,-49.41c-2.49,-34.98 2.811,-89.713 4.699,-99.089c5.411,-26.87 4.93,-26.932 5.555,-29.228c10.64,-39.06 16.649,-49.703 23.151,-61.436c7.347,-13.259 15.44,-25.685 33.985,-41.996l86.506,407.643c13.167,-1.385 23.442,-5.271 38.47,-29.926c8.264,-13.558 18.382,-45.574 20.581,-58.426c2.084,-12.179 8.716,-30.572 3.991,-33.712c-6.165,-4.096 -42.043,-1.142 -76.66,-45.83c-21.591,-27.873 -29.797,-62.968 -31.174,-68.856c-0.274,-1.172 -4.188,-13.111 -5.729,-26.313c-1.935,-16.586 -3.174,-16.432 -3.306,-35.036c-0.188,-26.404 0.704,-26.316 3.326,-52.537c1.838,-18.379 9.819,-44.663 15.916,-55.032c5.218,-8.874 5.221,-8.842 5.21,-8.909c-0.901,-5.627 -3.713,-3.083 -7.695,0.997c-1.365,1.398 -8.308,10.485 -11.944,16.781c-16.816,29.118 -21.017,61.109 -23.695,72.502c-0.867,3.687 -0.687,3.708 -6.517,52.298c-2.362,19.683 -3.319,112.875 0.084,134.051c4.22,26.267 2.583,26.543 8.985,52.387c3.343,13.495 16.982,69.764 58.534,84.074c5.606,1.931 5.694,1.25 11.622,1.488l-86.506,-407.643Z" style="fill:#301e14;fill-opacity:1;"/><path d="M1230.37,1268.148c1.214,-0.395 0.841,-1.502 5.226,-1.701c34.74,-1.579 50.235,5.507 58.642,9.63c10.49,5.144 20.885,14.887 25.551,23.974c2.744,5.343 2.597,5.373 4.726,10.968c7.84,30.245 -1.731,43.115 2.11,46.504c3.113,2.746 5.387,-4.502 5.567,-5.077c7.559,-24.092 31.195,-58.245 49.926,-71.87c2.006,-1.459 7.948,-5.173 8.647,-5.61c19.168,-9.299 27.235,-8.737 51.546,-6.074c6.091,0.667 26.27,5.45 40.513,16.901c24.988,20.091 32.09,43.302 38.651,63.389c1.199,3.672 6.416,27.886 7.537,43.879c3.596,51.334 -2.32,58.067 -4.117,96.057c-1.18,24.941 -3.74,63.48 -1.745,110.607c0.031,0.734 1.54,26.899 3.203,35.01c9.442,46.058 16.481,46.866 25.906,53.428c0.347,0.241 2.458,1.711 2.571,4.613c0.054,1.379 -5.679,15.233 -13.175,20.693c-4.274,3.113 -4.414,2.8 -9.192,5.01c-4.516,1.434 -12.165,5.615 -34.619,-2.532c-17.667,-6.41 -33.257,-29.651 -38.435,-46.223c-3.605,-11.538 -4.316,-11.317 -6.635,-23.194c-0.91,-4.661 -1.838,-4.637 -4.78,-23.517c-0.369,-2.367 -3.392,-37.564 -3.624,-49.492c-0.605,-31.081 1.24,-56.249 1.597,-61.128c0.34,-4.644 0.246,-20.418 4.281,-61.295c0.936,-9.483 1.854,-9.375 2.926,-31.96c0.009,-0.194 2.382,-28.785 2.798,-32.101c4.986,-39.721 10.285,-82.565 -18.688,-102.713c-25.389,-17.655 -55.836,5.438 -71.957,29.014c-16.078,22.224 -20.461,32.993 -36.578,70.837c-6.223,14.611 -7.17,26.888 -7.356,29.297c-2.109,27.154 -4.218,54.308 -6.327,81.462c-3.389,43.665 -4.346,113.025 2.648,148.334c2.888,14.58 1.44,14.875 5.889,29.021c4.328,13.763 3.492,14.138 11.118,26.394c2.931,4.71 7.763,8.487 -2.585,12.339c-0.487,0.181 -0.456,0.153 -6.161,2.069c-4.559,1.052 -34.925,8.061 -56.056,-16.685c-1.428,-1.672 -7.666,-8.978 -13.041,-24.191c-0.393,-1.113 -0.312,-1.13 -3.958,-14.212c-0.762,-2.734 -3.41,-12.235 -6.368,-34.899c-3.204,-24.551 -3.681,-32.827 -5.152,-78.727c-2.453,-76.546 9.191,-154.072 1.244,-227.177c-0.282,-2.598 -1.725,-15.872 -6.628,-31.988c-3.139,-10.318 -5.927,-11.553 -6.146,-14.487c-0.065,-0.873 0.562,-1.705 0.497,-2.578Z" style="fill:#301e14;fill-opacity:1;"/><path d="M2739.143,1304.131c11.816,-9.561 48.398,-41.234 106.538,-36.993c13.977,1.02 21.313,3.414 23.096,3.995c1.009,0.329 20.537,5.29 35.295,19.75c16.336,16.005 19.776,31.952 23.272,43.829c2.114,7.181 5.494,38.096 -0.563,61.091c-3.642,13.826 -9.042,47.186 -50.176,83.269c-4.311,3.399 -32.697,25.779 -60.156,33.003c-0.262,0.069 -19.807,7.084 -52.223,4.806c-9.448,-0.664 -17.517,-3.943 -19.689,-1.02c-1.027,1.383 -0.884,1.59 0.616,34.242c0.295,3.502 1.265,15.002 5.864,43.538c1.357,8.423 7.461,32.387 9.729,38.25c0.961,2.485 13.739,46.134 44.557,63.061c0.567,0.311 0.568,0.281 10.908,4.6c54.344,15.022 87.351,-28.69 89.181,-31.083c1.759,-2.3 12.609,-15.58 22.425,-36.432c11.173,-23.736 20.058,-59.878 21.093,-63.702c2.625,-4.069 2.883,-5.507 7.399,-3.671c2.024,0.823 5.652,2.189 -7.854,44.055c-12.103,37.519 -29.594,59.091 -33.206,63.546c-3.801,4.688 -9.232,11.573 -18.326,19.243c-27.819,21.244 -47.091,24.845 -89.249,19.615c-9.24,-1.146 -68.796,-7.512 -106.578,-71.278c-2.103,-3.549 -10.121,-19.942 -11.519,-23.203c-3.076,-7.171 -12.152,-33.047 -15.209,-51.971c-1.876,-11.61 -1.291,-11.666 -3.549,-23.185c-3.251,-16.583 -3.169,-64.523 -0.127,-81.58c3.618,-20.285 1.638,-20.61 6.738,-40.532c1.884,-7.361 12.936,-71.134 61.713,-115.243l41.391,9.592c-10.208,16.027 -16.535,37.666 -17.538,41.097c-0.502,1.716 -4.118,11.241 -5.664,20.514c-0.699,4.188 -11.068,43.481 -12.46,107.928c-0.301,13.931 -3.517,19.512 4.463,21.224c8.51,1.826 18.914,2.528 20.569,2.64c11.285,0.762 24.058,-1.009 26.131,-1.296c14.44,-2.002 14.403,-2.26 29.297,-7.833c-1.329,-0.986 -1.285,1.851 -2.58,0.891c-0.4,-0.297 -3.311,-2.455 -3.32,-5.266c-0.001,-0.249 4.888,-1.756 12.031,-7.471c12.499,-9.999 10.829,-11.51 12.545,-13.586c0.392,-0.474 1.111,-0.584 1.525,-1.039c0.54,-0.594 0.781,-1.41 1.276,-2.041c6.958,-8.87 6.997,-8.839 7.44,-9.59c2.414,-4.084 -0.2,-5.075 2.649,-8.833c0.861,-1.137 2.375,-1.65 3.267,-2.763c0.504,-0.629 4.375,-11.569 4.421,-11.994c0.161,-1.484 -0.817,-1.46 -0.214,-5.169c1.434,-8.807 1.64,-8.724 2.635,-17.635c1.646,-14.739 0.5,-35.047 0.978,-40.857c0.599,-7.284 -0.184,-7.237 -0.039,-14.495c0.105,-5.245 -2.165,-20.495 -2.822,-23.138c-2.213,-8.908 -1.599,-9.103 -5.854,-17.246c-1.507,-2.884 -0.916,-3.233 -3.226,-5.524c-0.685,-0.679 -7.99,-7.92 -8.592,-8.447c-2.89,-2.53 -13.083,-6.68 -16.194,-7.368c-8.926,-1.975 -8.979,-2.196 -17.932,-0.656c-3.237,0.557 -5.447,1.903 -5.54,1.936l-2.911,1.137l-2.911,1.775l-2.911,1.941l-2.911,2.426l-2.911,2.193l-2.911,2.911l-2.911,3.29l-2.911,3.697l-3.964,-3.349l-41.391,-9.592l41.391,9.592l3.964,3.349l2.911,-3.697l2.911,-3.29l2.911,-2.911l2.911,-2.193l2.911,-2.426l2.911,-1.941l2.911,-1.775l2.911,-1.137c0.093,-0.032 2.303,-1.379 5.54,-1.936c8.953,-1.541 9.006,-1.319 17.932,0.656c3.112,0.688 13.304,4.838 16.194,7.368c0.602,0.527 7.907,7.769 8.592,8.447c2.31,2.29 1.719,2.64 3.226,5.524c4.255,8.142 3.641,8.337 5.854,17.246c0.657,2.644 2.926,17.893 2.822,23.138c-0.145,7.258 0.638,7.211 0.039,14.495c-0.478,5.809 0.669,26.118 -0.978,40.857c-0.995,8.911 -1.202,8.828 -2.635,17.635c-0.604,3.709 0.374,3.685 0.214,5.169c-0.046,0.425 -3.917,11.365 -4.421,11.994c-0.892,1.113 -2.406,1.626 -3.267,2.763c-2.849,3.759 -0.235,4.749 -2.649,8.833c-0.444,0.751 -0.483,0.72 -7.44,9.59c-0.495,0.631 -0.736,1.448 -1.276,2.041c-0.414,0.455 -1.133,0.565 -1.525,1.039c-1.716,2.076 -0.046,3.587 -12.545,13.586c-7.144,5.715 -12.032,7.222 -12.031,7.471c0.009,2.811 2.92,4.97 3.32,5.266c1.295,0.961 1.251,-1.876 2.58,-0.891c19.184,-8.596 21.38,-11.191 24.231,-13.54c38.587,-31.802 35.838,-106.371 35.841,-108.929c0.021,-17.561 0.452,-33.079 -7.601,-58.272c-2.346,-7.338 -11.969,-28.878 -28.842,-35.847c-23.534,-9.72 -38.773,0.454 -48.89,8.031c-4.385,3.284 -10.338,11.142 -11.136,12.195c-1.626,2.146 -3.559,3.532 -8.401,12.089l-41.391,-9.592Z" style="fill:#301e14;fill-opacity:1;"/><path d="M977.619,1303.817c28.437,-24.974 58.883,-32.173 63.022,-33.387c9.533,-2.797 43.387,-6.678 66.74,1.148c12.052,4.039 32.629,10.422 48.586,37.68c3.28,5.603 4.318,10.13 6.969,16.803c7.111,17.898 5.538,61.04 0.634,75.86c-2.851,8.616 -8.084,34.818 -36.66,65.668c-25.268,25.497 -56.074,40.452 -74.463,45.043c-13.639,3.405 -22.194,5.579 -49.466,4.283c-10.963,-0.521 -17.836,-3.919 -20.356,-1.529c-2.739,2.598 0.234,29.188 0.498,31.845c1.45,19.103 2.112,18.982 4.477,37.993c1.179,9.476 1.656,9.367 7.361,34.634c2.032,9 3.071,8.645 5.676,17.455c0.57,1.926 0.638,1.845 5.969,14.429c5.268,12.435 20.135,35.085 37.29,43.503c10.744,5.273 21.084,6.723 22.987,6.99c13.84,0.546 22.796,0.922 40.949,-6.105c29.352,-11.362 53.165,-47.459 65.029,-81.509c5.259,-15.095 5.489,-14.989 14.119,-46.568c2.167,-2.788 1.59,-3.999 5.146,-4.026c7.363,-0.055 3.868,11.57 3.567,12.571c-5.549,18.457 -15.838,72.283 -57.24,111.957c-3.244,2.636 -25.724,24.343 -62.785,24.954c-6.69,0.11 -37.104,-2.261 -49.482,-6.155c-28.417,-8.939 -48.35,-18.294 -72.485,-46.79c-8.922,-10.535 -19.067,-27.283 -24.342,-40.209c-9.422,-23.087 -14.997,-37.669 -20.069,-75.932c-0.144,-1.086 -2.679,-29.541 -2.826,-32.059c-1.031,-17.629 -0.159,-19.409 2.425,-52.501c1.47,-18.827 5.852,-37.474 6.607,-40.684c4.433,-18.863 15.744,-73.273 62.123,-115.364l44.628,4.031c-12.307,19.179 -11.18,19.767 -18.788,38.803c-3.128,7.827 -4.599,15.914 -4.882,16.834c-3.561,11.566 -3.423,11.575 -5.57,23.477c-2.131,11.814 -2.662,11.673 -4.808,26.391c-1.293,8.87 -0.447,8.942 -2.967,29.109c-1.831,14.652 -1.422,32.502 -3.25,49.462c-0.921,8.549 -0.683,11.597 6.13,12.687c22.701,3.633 35.035,3.564 55.675,-0.27c7.332,-1.362 21.89,-7.455 23.745,-8.231l-3.512,-5.48l2.911,-1.747l3.588,-2.735l3.47,-2.911l2.911,-2.911c0.944,-1.787 1.722,-1.128 2.664,-2.911c0.518,-0.98 -0.447,-1.081 -0.013,-2.108c2.096,-4.961 9.331,-6.592 13.894,-15.359c2.742,-5.27 2.917,-5.129 3.124,-5.599c0.429,-0.975 0.37,-2.099 0.619,-3.135c0.854,-3.558 2.054,-5.11 2.306,-5.636c2.636,-5.507 0.695,-5.987 2.624,-11.77c4.482,-13.437 2.419,-13.788 4.52,-35.068c1.352,-13.691 -0.327,-18.023 0.413,-26.114c0.53,-5.799 0.115,-5.74 -0.327,-11.584c-2.131,-28.208 -4.867,-27.616 -8.427,-37.641c-1.766,-4.972 -1.664,-5.011 -4.593,-9.36c-1.328,-1.971 -2.598,-6.521 -6.051,-8.687c-3.571,-2.241 -2.918,-3.272 -6.903,-4.544c-12.634,-4.031 -12.245,-6.472 -22.522,-5.566c-2.877,0.254 -3.944,-0.498 -8.765,1.032l-2.911,0.97l-5.822,2.911l-2.911,1.941l-2.911,2.426l-2.911,2.103l-4.852,4.852l-4.898,-3.634l-44.628,-4.031l44.628,4.031l4.898,3.634l4.852,-4.852l2.911,-2.103l2.911,-2.426l2.911,-1.941l5.822,-2.911l2.911,-0.97c4.821,-1.53 5.887,-0.778 8.765,-1.032c10.277,-0.906 9.888,1.535 22.522,5.566c3.985,1.271 3.332,2.303 6.903,4.544c3.453,2.166 4.723,6.716 6.051,8.687c2.929,4.349 2.827,4.388 4.593,9.36c3.56,10.024 6.295,9.433 8.427,37.641c0.442,5.844 0.857,5.785 0.327,11.584c-0.74,8.092 0.939,12.424 -0.413,26.114c-2.102,21.279 -0.038,21.631 -4.52,35.068c-1.929,5.782 0.012,6.262 -2.624,11.77c-0.252,0.526 -1.452,2.078 -2.306,5.636c-0.249,1.036 -0.19,2.16 -0.619,3.135c-0.207,0.469 -0.382,0.329 -3.124,5.599c-4.562,8.767 -11.798,10.398 -13.894,15.359c-0.434,1.027 0.531,1.127 0.013,2.108c-0.942,1.783 -1.72,1.124 -2.664,2.911l-2.911,2.911l-3.47,2.911l-3.588,2.735l-2.911,1.747l3.512,5.48c16.286,-8.112 31.265,-13.769 45.637,-50.842c0.042,-0.109 6.578,-20.717 7.852,-32.048c15.488,-137.799 -45.741,-141.941 -68.235,-132.716c-17.704,7.261 -28.79,24.877 -30.538,27.343l-44.628,-4.031Z" style="fill:#301e14;fill-opacity:1;"/><path d="M1472.012,1868.302c3.796,-2.04 25.583,-13.745 52,-14.051c37.899,-0.438 50.624,5.912 64.202,12.926c21.079,10.888 37.938,36.352 43.755,58.479c9.735,37.03 4.467,65.529 3.484,75.867c-0.899,9.443 -0.228,13.218 -9.621,11.89c-14.509,-2.051 -14.466,-1.892 -29.112,-2.654c-23.586,-1.226 -25.344,-0.351 -26.317,-3.466c-0.914,-2.924 -0.079,-2.944 0.729,-8.707c0.932,-6.648 3.323,-44.209 2.65,-58.312c-1.04,-21.78 -3.611,-44.434 -12.425,-57.916c-10.646,-16.284 -36.967,-25.358 -69.913,-13.373c-2.535,0.922 -17.62,6.409 -25.744,21.779c-4.371,8.27 -4.454,8.23 -6.878,17.215c-2.005,8.286 -2.015,8.227 -2.165,8.948c-2.528,12.144 1.077,34.992 9.794,52.132c19.504,38.35 61.626,44.376 75.05,46.386c58.85,7.057 92.698,-0.411 133.758,21.083c7.009,3.669 23.791,15.439 28.396,32.072c3.854,13.919 0.708,14.43 -0.02,16.158c-0.727,-0.014 -1.388,0.551 -2.115,0.537c-2.411,-0.047 -3.211,-1.687 -3.347,-1.966c-2.433,-4.991 2.546,-35.607 -57.61,-50.523c-5.081,-1.26 -6.368,-1.369 -7.791,3.718c-0.604,2.157 -1.362,26.607 -1.433,28.923c-0.173,4.193 -1.284,31.035 -0.574,52.453c0.356,10.731 2.261,34.213 3.711,40.748c7.343,33.085 13.993,30.864 18.731,37.155c3.328,4.418 -2.753,11.959 -3.417,12.783c-6.68,8.284 -11.077,8.503 -15.45,10.113c-8.728,0.777 -29.415,3.301 -47.011,-21.777c-13.519,-19.267 -15.838,-46.132 -17.017,-46.775c-1.937,-1.056 -1.743,0.204 -3.128,1.887c-0.396,0.481 -1.046,0.766 -1.318,1.327c-0.482,0.993 -2.1,14.851 -16.465,33.709c-16.383,19.088 -26.305,20.801 -39.798,24.578c-13.928,3.899 -45.706,1.011 -49.823,0.028c-12.738,-3.042 -54.293,-9.671 -71.487,-53.495c-1.195,-3.045 -7.575,-19.307 -6.867,-40.312c0.813,-24.116 5.159,-47.4 32.905,-71.606c2.758,-2.123 11.824,-9.791 28.533,-17.723c15.331,-6.573 15.517,-5.911 28.628,-9.907c16.498,-5.029 30.746,-0.813 28.186,-5.589c-1.41,-2.63 -1.738,-2.393 -4.595,-3.253c-19.471,-5.862 -37.285,-25.32 -40.996,-31.645c-5.885,-10.029 -11.671,-15.84 -13.954,-32.122c-2.914,-20.78 -4.725,-55.268 31.878,-77.723l10.6,163.902c-34.173,16.737 -48.407,44.511 -44.584,100.116c2.269,33.001 21.952,56.25 31.564,62.885c7.515,5.187 7.542,5.148 16.266,8.025l3.186,-4.478l2.911,0l2.911,-0.485l2.911,-0.222c7.96,-3.013 8.313,-2.325 15.073,-7.401c4.48,-3.363 4.865,-2.684 5.25,-2.976c4.233,-3.215 2.387,-4.724 6.198,-8.423c8.073,-7.839 6.838,-8.756 13.27,-18.06c5.633,-8.149 6.216,-7.69 6.665,-8.423c0.58,-0.948 3.278,-13.321 3.357,-17.379c0.141,-7.287 0.819,-7.191 0.983,-14.516c0.101,-4.505 0.209,-4.449 0.945,-8.853c0.685,-4.097 0.046,-4.085 -1.045,-14.51c-0.876,-8.372 1.853,-8.199 1.636,-14.573c-0.067,-1.95 -0.351,-3.89 -0.379,-5.841c-0.112,-7.983 2.871,-7.907 1.07,-23.433c-8.474,-4.849 -8.869,-6.768 -11.841,-9.099c-8.185,-6.418 -21.719,-6.99 -23.695,-7.074c-0.695,-0.029 -8.363,-0.354 -8.674,-0.592c-1.373,-1.052 -1.617,-3.188 -2.99,-4.24l-2.911,0.617l-2.911,0.771l-2.911,0.684l-2.911,0.771l-2.911,1.092l-2.911,0.865l-3.521,-5.248l-10.6,-163.902l10.6,163.902l3.521,5.248l2.911,-0.865l2.911,-1.092l2.911,-0.771l2.911,-0.684l2.911,-0.771l2.911,-0.617l2.911,-0.839l5.822,-0.97l2.911,0l2.911,-0.659l8.733,0l5.822,1.941l2.911,1.785l2.911,2.097l2.911,1.542l2.911,2.672c4.875,4.764 4.939,4.654 5.264,5.145c0.37,0.559 0.52,0.785 1.181,8.291c1.801,15.526 -1.183,15.45 -1.07,23.433c0.027,1.951 0.312,3.891 0.379,5.841c0.217,6.374 -2.511,6.201 -1.636,14.573c1.09,10.425 1.729,10.412 1.045,14.51c-0.736,4.405 -0.845,4.349 -0.945,8.853c-0.163,7.326 -0.842,7.229 -0.983,14.516c-0.078,4.058 -2.777,16.43 -3.357,17.379c-0.448,0.733 -1.031,0.274 -6.665,8.423c-6.432,9.304 -5.197,10.221 -13.27,18.06c-3.81,3.7 -1.965,5.208 -6.198,8.423c-0.384,0.292 -0.77,-0.387 -5.25,2.976c-6.76,5.075 -7.113,4.388 -15.073,7.401l-2.911,0.222l-2.911,0.485l-2.911,0l-3.186,4.478c2.261,0.51 12.536,5.006 31.85,-2.124c26.058,-9.62 36.971,-38.85 42.008,-53.858c1.557,-4.64 6.28,-25.447 6.541,-38.097c0.304,-14.76 -1.206,-27.395 1.614,-64.05c0.957,-12.437 2.321,-17.687 -5.903,-18.42c-19.121,-1.704 -19.035,-2.05 -37.909,-5.457c-6.328,-1.142 -25.837,3.113 -41.448,10.98l-10.6,-163.902l78.789,185.354c-0.661,-7.506 -0.811,-7.732 -1.181,-8.291c-0.325,-0.491 -0.389,-0.38 -5.264,-5.145l-2.911,-2.672l-2.911,-1.542l-2.911,-2.097l-2.911,-1.785l-5.822,-1.941l-8.733,0l-2.911,0.659l-2.911,0l-5.822,0.97l-2.911,0.839c1.373,1.052 1.617,3.188 2.99,4.24c0.311,0.238 7.979,0.563 8.674,0.592c1.977,0.084 15.51,0.656 23.695,7.074c2.972,2.33 3.367,4.25 11.841,9.099l-78.789,-185.354Z" style="fill:#301e14;fill-opacity:1;"/><path d="M845.357,1718.272c-1.126,0.375 -5.138,2.571 -14.229,2.477c-16.535,-0.171 -47.713,-11.437 -62.372,-74.194c-0.425,-1.818 -2.832,-8.635 -4.992,-20.603c-0.292,-1.619 -0.138,-1.635 -3.23,-20.315c-3.252,-19.648 -4.11,-48.344 -4.236,-52.561c-1.012,-33.834 -4.089,-51.298 -3.9,-157.171c0.01,-5.69 1.244,-60.062 1.501,-78.57c0.23,-16.547 5.802,-149.121 4.524,-165.969c-0.828,-10.914 -1.006,-26.052 -8.909,-49.448c-6.245,-18.487 -17.62,-30.341 -19.728,-32.538c-2.61,-2.72 -4.048,-3.27 -1.468,-6.015c3.569,-3.798 49.098,-14.142 79.424,-2.014c11.533,4.612 22.077,10.013 34.367,26.451c14.503,19.395 12.977,47.386 11.179,86.79c-1.184,25.958 -2.987,25.743 -6.53,64.203c-2.688,29.171 -3.542,29.036 -5.725,58.216c-2.594,34.673 -2.264,34.645 -2.492,37.655c-0.758,9.976 -2.653,18.63 -3.445,40.916c-1.048,29.486 -5.66,97.368 -5.701,142.592c-0.034,37.876 -1.099,37.903 2.577,75.594c2.565,26.296 1.455,26.434 5.617,43.589c4.361,17.975 2.997,18.429 10.873,35.176c0.635,1.349 4.788,10.18 11.842,14.396c4.756,2.843 8.415,3.45 5.365,11.588c-0.835,2.228 -0.86,2.211 -5.381,8.916c-1.869,2.772 -4.72,5.169 -5.781,5.895c-4.35,2.98 -4.402,2.773 -9.15,4.945Z" style="fill:#301e14;fill-opacity:1;"/><path d="M1676.25,1295.242c7.298,-4.424 42.556,-32.158 92.28,-27.647c16.726,1.518 16.621,2.075 31.805,6.658c9.356,2.824 21.033,10.218 23.033,11.682c1.726,1.264 26.367,15.818 37.448,54.908c1.849,6.524 4.488,21.704 3.687,28.854c-0.427,3.806 -2.37,21.147 -26.926,39.588c-9.422,5.34 -9.238,5.837 -22.62,9.353c-0.598,0.157 -5.811,1.527 -7.722,-0.381c-3.667,-3.661 4.879,-28.03 0.679,-71.689c-3.999,-41.572 -20.673,-55.437 -24.587,-58.692c-2.078,-1.728 -12.969,-10.784 -32.225,-10.147c-19.934,0.66 -35.857,21.515 -36.963,22.869c-1.153,1.413 -1.084,1.447 -4.943,7.259c-1.703,2.645 -10.677,16.578 -17.276,35.322c-2.61,7.414 -1.887,7.6 -4.681,14.974c-1.824,4.816 -8.55,34.325 -9.621,43.488c-3.27,27.972 -5.22,28.982 -6.458,61.155c-0.399,10.364 -2.878,37.637 0.52,90.365c0.894,13.875 3.474,26.713 3.936,29.009c3.209,15.968 1.897,16.22 6.462,31.813c1.292,4.414 9.83,47.374 37.575,72.327c15.173,13.646 32.319,15.161 34.28,15.485c7.909,0.633 45.324,6.226 77.552,-33.107c32.053,-39.119 41.483,-91.284 45.778,-103.018c0.675,-0.241 0.963,-1.152 1.639,-1.393c2.757,-0.982 9.051,0.069 6.715,9.39c-1.463,5.837 -10.277,37.634 -19.317,57.485c-16.163,35.491 -29.597,48.044 -31.153,49.745c-25.992,26.425 -52.141,39.301 -113.011,28.267c-12.512,-2.268 -40.231,-11.649 -60.621,-28.831c-44.161,-37.211 -56.941,-91.081 -62.369,-121.311c-5.869,-32.689 -6.06,-56.629 -4.344,-87.355c1.042,-18.666 8.369,-61.016 16.321,-81.656c3.305,-8.579 2.799,-8.728 6.54,-17.153c6.695,-15.075 6.627,-15.083 16.778,-32.37c5.683,-9.678 23.107,-29.698 27.561,-33.479c1.127,-0.957 7.284,-6.183 14.248,-11.767Z" style="fill:#301e14;fill-opacity:1;"/><path d="M2740.837,1858.116c-20.236,0.008 -61.595,-5.774 -115.986,56.372c-5.555,6.347 -5.45,6.354 -10.452,13.172c-4.516,5.748 -4.4,5.767 -8.479,11.897c-8.487,12.302 -8.747,-1.326 -8.761,-2.045c-0.203,-10.623 -1.496,-51.686 16.019,-75.445c11.674,-12.211 18.321,-10.502 49.053,-10.502c59.691,0 59.655,-0.887 119.358,-0.222c32.136,0.358 41.847,-2.391 48.839,7.873c5.073,7.446 1.386,15.861 0.836,17.116c-2.206,5.035 -22.237,47.112 -25.503,52.789c-1.298,2.256 -0.958,2.379 -15.022,28.853c-31.538,59.365 -36.225,56.46 -87.479,136.79c-18.444,28.907 -28.336,50.069 -30.454,54.6c-0.222,0.474 -0.279,0.432 -2.974,5.827c-5.239,10.486 -15.692,40.691 -15.03,46.992c0.048,0.456 0.326,3.101 4.346,3.738c0.09,0.014 50.419,0.334 55.55,-0.226c31.171,-3.403 70.493,-30.431 100.082,-78.312c0.17,-0.274 0.16,-0.241 2.196,-3.383c5.101,-7.869 4.208,-10.119 8.455,-9.34c1.503,0.275 0.943,0.813 1.181,2.279c0.07,0.429 0.496,0.757 0.535,1.19c0.113,1.262 0.969,23.863 1.047,25.939c1.11,29.318 -2.886,42.715 -3.948,46.276c-4.789,16.055 -7.315,17.509 -16.036,21.768c-1.272,0.223 -1.793,1.1 -9.176,1.162c-27.304,0.227 -50.17,-0.392 -81.488,0.253c-11.15,0.23 -95.104,0.052 -98.783,-0.68c-4.584,-0.911 -17.587,-5.979 -21.701,-18.918c-2.743,-8.627 -3.103,-13.747 1.148,-26.564c2.413,-7.275 17.184,-41.784 35.978,-75.101c37.74,-66.904 61.396,-92.823 74.43,-111.362c29.033,-41.294 36.35,-56.058 53.594,-89.63c3.632,-7.071 7.627,-16.423 10.888,-23.637c1.552,-3.434 5.402,-9.248 -3.07,-9.554c-2.334,-0.084 -2.322,0 -29.191,0.038Z" style="fill:#301e14;fill-opacity:1;"/><path d="M176.005,782.348c2.824,0.544 12.319,2.372 34.96,8.378c6.999,1.857 6.922,2.341 26.104,6.322c0.956,0.198 18.238,5.227 37.988,5.904c15.935,0.547 18.713,-2.809 20.654,-1.252c3.11,2.496 -2.417,11.645 -5.28,15.425c-6.51,8.595 -11.022,9.397 -12.718,10.267c-28.054,6.282 -65.663,-4.385 -78.136,-6.014c-15.83,-2.068 -35.776,-8.902 -37.655,-7.118c-0.3,0.285 -0.065,3.817 0.48,4.497c0.313,0.392 0.557,0.053 5.23,3.459c4.843,3.53 5.204,13.723 5.711,17.652c1.027,15.379 1.535,16.656 0.266,43.682c-0.423,9.003 4.149,8.077 14.134,8.999c42.807,3.953 42.533,-1.854 46.699,-1.791c5.383,0.081 3.302,6.797 3.111,7.412c-5.833,18.825 -12.817,19.871 -35.278,18.046c-11.606,-0.943 -11.548,-1.175 -23.181,-2.005c-9.647,-0.687 -8.16,3.34 -9.087,12.967c-0.236,2.455 -1.317,12.766 0.035,14.7c2.322,3.319 28.607,5.004 55.575,8.593c34.888,4.643 35.263,2.559 69.815,11.829c1.162,0.464 12.168,4.857 14.319,6.273c5.429,3.574 4.876,4.303 5.421,4.436c0.654,0.159 0.821,-1.07 1.279,-1.565c1.364,-1.476 1.143,-1.618 1.163,-3.596c0.409,-40.742 5.837,-63.368 -2.394,-92.874c-0.819,-2.935 -0.473,-2.948 -0.838,-5.225c1.731,-2.077 1.643,-2.174 1.867,-2.241c1.295,-0.384 9.698,0.387 11.417,0.728c30.783,6.113 25.335,29.847 25.649,30.024c1.046,0.593 2.467,-0.319 3.469,-0.984c1.199,-0.795 3.562,-6.157 4.95,-8.4c3.766,-6.086 8.526,-11.656 12.076,-14.387c13.96,-10.74 23.661,-6.909 35.377,-3.12c1.759,0.569 10.863,3.513 17.742,14.796c19.646,32.22 5.037,68.914 7.251,116.802c0.451,9.76 3.944,28.468 5.32,31.349c2.421,5.07 9.528,8.928 6.219,14.54c-7.868,13.345 -27.141,6.465 -33.553,-5.344c-6.045,-11.134 -5.68,-11.356 -9.238,-31.842c-3.782,-21.776 1.726,-66.034 1.92,-70.001c1.046,-21.336 2.585,-28.392 2.964,-40.718c0.08,-2.61 0.924,-30.063 -19.207,-26.393c-6.029,1.099 -10.503,5.365 -11.526,6.171c-0.482,0.48 -1.215,0.652 -1.697,1.132c-2.083,2.074 -5.831,7.383 -6.303,8.052c-3.588,5.082 -12.033,20.367 -12.925,22.553c-5.652,13.858 -6.089,22.808 -8.214,64.233c-1.294,25.232 1.278,47.777 2.343,52.519c2.188,9.738 7.148,18.844 6.847,20.314c-0.242,1.182 -0.875,4.274 -14.913,2.264c-8.71,-1.247 -10.918,-2.698 -15.599,-10.588c-8.086,-13.629 -8.265,-54.36 -10.153,-58.952c-1.309,-3.184 -13.635,-10.845 -24.088,-13.68c-10.241,-2.778 -15.786,-6.232 -81.249,-12.879c-10.476,-1.064 -38.537,-5.005 -41.141,-6.092c-2.918,-1.219 -2.593,-1.805 -5.565,-2.928c-1.564,-0.591 -1.614,-0.384 -20.333,-4.85c-5.49,-1.31 -5.508,-0.873 -8.076,-1.081c-0.296,-0.014 -1.917,1.975 -18.056,-4.913c-5.375,-2.294 -18.041,-9.38 -25.779,-17.771c-17.8,-19.302 -24.839,-63.791 9.252,-94.594c3.101,-2.802 9.111,-7.272 9.924,-7.877c8.535,-6.348 9.577,-5.14 14.413,-11.255c6.153,-7.78 6.842,-10.112 17.821,-17.673c13.749,-9.469 30.467,-4.641 32.419,-4.319l-79.009,130.817c16.218,16.443 24.876,15.834 32.537,20.104c0.663,0.369 1.004,1.382 1.761,1.443c0.661,0.054 1.067,-0.788 1.609,-1.169c1.775,-1.248 1.716,-1.384 1.922,-3.503c1.171,-12.039 0.477,-13.093 -0.141,-14.03c-2.464,-3.741 -11.239,1.226 -13.54,-0.751c-3.177,-2.73 2.848,-17.768 3.913,-19.174c4.166,-5.501 10.108,-3.488 11.265,-9.439c0.623,-3.207 0.263,-67.271 -5.147,-71.548c-5.634,-4.455 -24.705,13.187 -24.808,13.269c-22.768,18.101 -27.165,51.624 -16.426,74.833c1.291,2.79 2.921,5.151 3.213,5.574c0.265,0.384 0.435,0.161 3.841,4.391l79.009,-130.817Z" style="fill:#301e14;fill-opacity:0.99;"/><path d="M938.6,883.424c-2.427,7.544 -2.478,7.478 -4.51,15.101c-4.702,26.267 -2.088,42.533 5.386,63.324c4.977,13.843 14.143,20.737 15.88,22.043c9.672,6.82 10.175,5.789 21.276,9.899c1.113,0.236 2.24,1.622 11.754,1.199c15.807,-0.704 18.086,-5.662 20.38,-7.338c15.553,-8.23 19.72,-14.091 26.464,-22.344c2.066,-2.528 1.969,-2.547 3.558,-5.382c1.594,-2.57 1.839,-2.34 3.454,-4.898c1.737,-2.751 0.98,-4.092 4.259,-4.102c8.603,-0.028 -6.435,21.323 -17.518,31.481c-11.15,10.22 -21.027,10.669 -23.419,17.512c-3.503,10.02 -5.949,26.286 -24.087,42.521c-6.305,4.025 -9.785,7.446 -25.103,10.875c-17.605,3.942 -44.414,-5.693 -57.852,-27.387c-24.136,-38.964 -13.174,-110.82 3.091,-133.208c1.888,-2.599 1.803,-2.583 3.61,-5.173c5.376,-5.918 12.752,-14.812 36.496,-19.315c3.042,-0.577 6.434,-2.864 23.419,3.348c23.561,8.617 33.632,32.38 34.694,35.308c7.173,19.762 6.425,19.983 8.247,37.86c0.771,9.434 2.237,18.781 -0.469,37.731c-1.108,0.705 -0.44,1.713 -4.706,2.997c-4.32,1.3 -10.15,4.275 -24.842,2.642c-0.532,-11.589 0.432,-11.517 0.746,-23.089c0.12,-4.449 1.993,-33.765 -4.834,-61.153c-2.071,-8.308 -7.045,-18.343 -11.805,-23.276c-5.847,-6.06 -16.446,-8.998 -20.607,-3.036c-1.258,1.802 -1.085,1.836 -2.962,5.861l-12.028,2.582c-8.459,17.798 -9.69,43.254 -9.875,47.1c-0.903,18.673 -2.808,35.788 0.622,66.997l4.272,-3.023c1.133,-0.573 1.56,-2.121 2.694,-2.694c2.038,-1.03 5.302,0.388 5.724,0.571c1.107,0.481 1.969,1.459 3.11,1.852c0.903,0.31 1.913,0.059 2.858,0.2c3.157,0.471 2.665,1.411 3.488,2.351c0.432,0.494 1.102,0.748 1.512,1.26c0.202,0.252 0.113,0.264 2.374,3.262c1.981,2.627 1.623,2.966 4.383,4.755c0.534,0.346 1.267,0.236 1.839,0.517c3.5,1.718 4.801,1.408 4.3,5.284c-0.148,1.146 -1.259,1.348 -0.754,5.944c0.097,0.882 0.759,6.912 -1.089,11.033c-0.184,0.41 -0.739,0.532 -1.019,0.883c-1.584,1.986 -1.277,2.398 -3.035,2.948c-0.845,0.265 -2.06,-0.195 -2.609,0.501c-0.447,0.567 0.952,1.48 0.566,2.09c-0.203,0.32 -0.447,0.033 -3.732,2.911c-2.076,1.819 -1.861,1.989 -3.921,3.794c11.575,5.593 23.736,6.486 33.624,-26.771c0.408,-1.373 4.538,-15.262 1.906,-17.797c-1.135,-1.094 -14.182,-4.137 -20.279,-8.888c-10.307,-8.032 -21.601,-19.601 -27.038,-52.078c-4.193,-25.05 4.248,-49.099 4.08,-49.722c-0.449,-1.664 -3.549,-1.614 -3.998,-3.277l12.028,-2.582l-21.281,116.678c0.316,2.452 2.388,18.505 8.526,29.703c5.586,10.191 6.239,10.232 12.434,14.736c2.06,-1.805 1.845,-1.975 3.921,-3.794c3.285,-2.878 3.529,-2.591 3.732,-2.911c0.386,-0.61 -1.013,-1.524 -0.566,-2.09c0.548,-0.695 1.764,-0.236 2.609,-0.501c1.758,-0.551 1.451,-0.962 3.035,-2.948c0.28,-0.351 0.835,-0.473 1.019,-0.883c1.847,-4.122 1.185,-10.151 1.089,-11.033c-0.505,-4.596 0.606,-4.797 0.754,-5.944c0.502,-3.876 -0.8,-3.566 -4.3,-5.284c-0.571,-0.281 -1.304,-0.17 -1.839,-0.517c-2.76,-1.788 -2.402,-2.127 -4.383,-4.755c-2.261,-2.998 -2.172,-3.01 -2.374,-3.262c-0.41,-0.512 -1.08,-0.766 -1.512,-1.26c-0.823,-0.94 -0.331,-1.88 -3.488,-2.351c-0.944,-0.141 -1.955,0.11 -2.858,-0.2c-1.141,-0.392 -2.003,-1.371 -3.11,-1.852c-0.422,-0.183 -3.686,-1.601 -5.724,-0.571c-1.133,0.573 -1.56,2.121 -2.694,2.694l-4.272,3.023l21.281,-116.678Z" style="fill:#301e14;fill-opacity:0.98;"/><path d="M739.673,954.983c-4.133,3.429 -9.895,10.162 -25.065,15.621c-14.752,5.309 -29.901,0.71 -31.293,3.405c-0.773,1.495 1.094,19.536 1.733,23.148c0.12,0.679 0.115,0.628 1.549,8.483c0.629,3.346 5.794,30.8 19.474,37.837c0.755,0.388 1.537,0.721 2.292,1.109c25.191,10.233 39.257,-9.798 41.45,-12.423c10.124,-12.111 15.15,-34.058 15.333,-34.704c0.088,-0.209 2.63,-7.869 5.751,-4.706c1.379,1.397 1.697,3.056 0.756,7.06c-2.865,12.192 -7.138,20.797 -10.002,26.614c-1.246,2.531 -8.955,15.24 -17.469,20.657c-17.26,10.98 -36.49,8.817 -58.768,-3.152c-2.886,-1.551 -24.398,-15.086 -30.885,-49.934c-8.537,-45.852 3.192,-87.209 22.865,-106.974c12.971,-13.032 26.919,-16.649 31.448,-18.118c9.685,-3.141 15.951,-2.45 29.308,2.472c26.641,9.818 25.084,47.049 15.322,65.061c-3.123,5.761 -2.789,5.961 -6.965,10.988c-3.531,4.25 -6.258,6.98 -6.833,7.557l-43.63,-63.345l4.085,2.689l2.911,-1.967l2.911,-0.728l2.911,0c0.857,0.516 2.055,0.211 2.911,0.728c1.159,0.698 1.847,2 2.939,2.799c0.561,0.411 1.404,0.326 1.939,0.77c0.592,0.491 0.796,1.325 1.295,1.911c0.381,0.447 4.252,2.822 5.536,14.809c0.302,2.821 -0.384,19.249 -4.09,25.9c-2.275,4.082 -9.598,13.894 -10.741,14.652c-2.318,1.536 -2.851,0.075 -5.097,1.612c-0.44,0.302 -0.081,1.22 -0.528,1.512c-0.954,0.623 -7.946,1.907 -11.631,-2.187c-2.584,-2.871 -1.436,-3.595 -3.879,-6.547c-0.953,-1.152 -2.384,-1.845 -3.337,-2.997c-0.108,1.599 -1.264,18.711 -0.485,20.03c0.547,0.926 17.499,5.064 31.493,-1.488c14.479,-6.779 21.766,-10.115 25.966,-41.715c1.484,-11.166 1.049,-55.338 -29.16,-46.217c-5.252,1.586 -9.499,6.606 -10.147,7.372c-3.451,4.08 -4.667,6.936 -5.803,9.062l43.63,63.345l-43.63,-63.345c-7.047,14.103 -10.199,30.586 -11.865,52.956c0.953,1.152 2.384,1.845 3.337,2.997c2.443,2.952 1.295,3.675 3.879,6.547c3.684,4.094 10.676,2.81 11.631,2.187c0.447,-0.292 0.087,-1.21 0.528,-1.512c2.246,-1.538 2.778,-0.076 5.097,-1.612c1.144,-0.758 8.467,-10.569 10.741,-14.652c3.706,-6.651 4.392,-23.079 4.09,-25.9c-1.284,-11.987 -5.155,-14.362 -5.536,-14.809c-0.499,-0.586 -0.703,-1.42 -1.295,-1.911c-0.535,-0.444 -1.378,-0.359 -1.939,-0.77c-1.092,-0.799 -1.78,-2.1 -2.939,-2.799c-0.857,-0.516 -2.055,-0.211 -2.911,-0.728l-2.911,0l-2.911,0.728l-2.911,1.967l-4.085,-2.689l43.63,63.345Z" style="fill:#301e14;fill-opacity:0.98;"/><path d="M461.706,782.394c3.643,-0.539 28.185,-6.62 42.174,9.064c10.738,12.039 5.704,39.525 5.941,42.695c0.077,1.034 0.551,2.012 0.629,3.046c0.206,0.838 0.895,1.505 1.102,2.343c0.733,2.974 0.554,3.758 0.481,4.078c-0.287,1.258 -1.48,0.297 -1.77,1.565c-0.194,0.44 -0.816,0.59 -1.01,1.03c-1.307,2.959 0.272,3.225 -4.706,40.168c-1.833,13.603 -7.453,116.563 0.305,139.886c4.216,12.675 5.166,12.247 7.972,15.434c2.943,3.341 2.997,3.819 1.184,7.886c-2.325,5.213 -3.539,4.093 -8.755,6.339c-2.239,0.105 -5.629,2.122 -14.867,-3.318c-12.344,-7.269 -16.45,-31.677 -17.381,-35.137c-0.866,-3.219 -6.172,-16.691 -3.753,-136.86c0.496,-24.651 1.199,-30.546 1.081,-32.017c-0.075,-0.931 -0.472,-1.817 -0.547,-2.748c-0.06,-0.52 -0.746,-6.502 -0.746,-6.502c0.098,-0.87 0.866,-1.574 0.964,-2.445c0.107,-0.944 0.592,-1.819 0.699,-2.762c0.522,-4.604 1.169,-25.532 -4.739,-37.319c-2.453,-4.893 -8.234,-10.645 -5.763,-13.273c0.433,-0.46 1.071,-0.693 1.503,-1.153Z" style="fill:#301e14;fill-opacity:1;"/><path d="M964.823,1212.28c2.338,-0.568 2.207,-1.034 6.21,-1.509c2.349,-0.278 11.768,-1.395 28.407,-8.192c1.297,-0.53 20.343,-10.336 26.074,-14.339c22.522,-15.732 23.713,-16.709 29.959,-13.952c4.705,2.077 34.572,31.726 69.861,37.075c1.894,0.287 3.8,0.495 5.699,0.75c1.038,0.139 11.358,0.053 7.719,8.783c-6.863,16.466 -33.889,27.211 -57.566,18.629c-1.784,-0.647 -12.392,-4.492 -20.36,-12.164c-5.613,-5.405 -7.129,-5.176 -13.905,0.201c-19.495,15.471 -61.624,22.526 -80.49,-7.068c-3.859,-6.053 -1.572,-7.592 -1.608,-8.214Z" style="fill:#301e14;fill-opacity:1;"/><path d="M134.801,944.463c1.631,0.884 0.921,2.199 6.314,3.423c1.66,0.377 16.42,3.725 20.742,4.742c3.882,0.913 5.416,-0.239 5.865,3.686c0.061,0.534 -8.442,64.016 2.913,69.189c2.763,1.259 2.93,0.372 34.6,0.37c35.027,-0.002 62.223,0.504 81.829,-7.573c1.4,-0.577 6.646,-4.105 8.312,-3.355c0.657,0.296 0.719,1.254 1.148,1.833c1.21,1.632 0.601,1.774 -0.05,3.707c-8.662,25.715 -24.361,30.047 -27.556,30.929c-13.654,3.768 -19.887,2.55 -63.77,-1.129c-2.102,-0.176 -12.613,-2.035 -34.875,-3.184c-37.682,-1.946 -38.85,6.715 -42.713,4.008c-2.292,-1.605 -0.037,-6.553 0.198,-7.068c6.89,-15.119 14.255,-11.566 15.446,-13.16c0.397,-0.532 -0.352,-1.298 -0.342,-1.961c0.01,-0.704 0.686,-1.429 0.401,-2.073c-0.559,-1.261 -11.257,-2.511 -11.484,-23.936c-0.231,-21.718 1.885,-47.179 2.137,-52.728c0.098,-2.167 -0.113,-2.116 -0.085,-2.297c0.276,-1.776 0.692,-1.613 0.972,-3.421Z" style="fill:#301e14;fill-opacity:1;"/><path d="M1938.385,1178.561c0.179,-0.178 14.268,-16.903 39.795,-13.093c31.585,4.714 48.198,44.195 26.53,70.632c-16.433,20.05 -42.608,18.499 -56.54,9.795c-3.54,-2.212 -5.075,-2.226 -11.432,-9.582c-9.035,-10.456 -17.821,-35.335 1.647,-57.752Z" style="fill:#301e14;fill-opacity:1;"/><path d="M605.235,1178.701c20.057,-19.747 43.48,-14.757 54.641,-7.817c0.594,0.369 11.784,5.51 18.177,20.704c9.184,21.827 -1.889,44.676 -15.678,53.07c-4.753,2.893 -9.544,6.966 -26.293,7.256c-11.495,0.199 -19.692,-5.174 -21.167,-6.14c-5.619,-3.683 -19.73,-12.208 -20.96,-36.151c-0.878,-17.081 9.191,-27.955 11.28,-30.922Z" style="fill:#301e14;fill-opacity:1;"/><path d="M534.004,874.863c-0.025,-1.028 -0.854,-1.928 -0.879,-2.956c-0.123,-5.111 1.804,-4.684 6.914,-4.284c21.167,1.66 26.689,10.18 29.882,15.48c5.823,9.666 -1.861,28.515 1.463,27.096c1.165,-0.497 1.639,-2.417 2.906,-2.449c1.752,-0.045 3,2.297 4.752,2.252c-5.207,13.993 -5.309,13.963 -8.099,28.642c-2.235,11.762 -3.11,11.613 -3.699,23.577c-0.902,18.324 -2.667,23.013 -0.301,52.259c0.172,2.128 1.124,13.888 5.542,26.1c1.401,3.872 3.956,6.247 3.316,9.242c-0.211,0.99 -1.23,1.71 -1.379,1.815c-0.35,0.248 -0.382,0.099 -5.191,1.341c-14.796,0.267 -27.386,-2.246 -30.765,-41.45c-3.964,-46.005 -2.105,-46.055 -0.569,-69.699c1.858,-28.608 0.287,-49.8 -0.27,-52.552c-1.48,-7.32 -1.685,-7.223 -3.622,-14.416Z" style="fill:#301e14;fill-opacity:1;"/><path d="M581.573,904.275c-0.671,-1.867 -3.917,-1.925 -4.588,-3.792c-0.835,-2.322 15.374,-41.787 41.579,-31.313c2.917,1.166 16.498,4.591 22.693,20.449c1.631,4.176 4.075,17.819 -0.229,25.454c-5.149,9.135 -19.427,16.817 -22.398,15.018c-3.034,-1.836 -2.241,-2.561 -1.228,-5.956c3.38,-11.328 3.678,-11.279 4.657,-23.082c2.983,-35.962 -21.07,-31.315 -32.81,-11.862c-4.402,7.294 -4.049,7.42 -7.675,15.083Z" style="fill:#301e14;fill-opacity:0.97;"/><path d="M447.188,838.081c15.977,-0.31 15.95,-0.162 17.337,-0.192c3.13,-0.068 3.098,-0.062 3.363,-0.11c1.167,-0.21 0.963,-0.67 2.117,-0.878c-0.098,0.87 -0.866,1.574 -0.964,2.445c0,0 0.686,5.982 0.746,6.502c-0.68,-0.133 -1.211,-0.731 -1.892,-0.863c-1.624,-0.317 -1.638,0.065 -20.685,-0.393c-0.256,-0.147 -3.198,-1.832 -3.198,-1.832c-1.472,-3.116 0.178,-3.017 3.175,-4.678Z" style="fill:#2b1b12;fill-opacity:0.74;"/><path d="M510.45,837.2c6.041,0.691 5.985,0.702 12.044,0.712c0.763,0.001 7.576,0.013 9.523,0.521c3.379,0.882 4.314,1.56 2.626,4.619c-0.944,1.712 -8.487,1.726 -9.239,1.727c-7.612,0.014 -7.549,0.078 -15.141,0.406c0.29,-1.268 1.482,-0.307 1.77,-1.565c0.073,-0.32 0.252,-1.104 -0.481,-4.078c-0.206,-0.838 -0.895,-1.505 -1.102,-2.343Z" style="fill:#2d1c13;fill-opacity:0.7;"/><path d="M138.278,1695.754c0.427,0.096 5.336,1.198 5.336,1.198c1.21,0.563 1.779,1.535 1.882,1.711c0.991,1.692 0.264,1.954 1.248,3.635c-0.277,-0.121 -2.339,-0.089 -4.946,-2.162c-0.132,-0.105 -0.923,-0.734 -1.517,-1.473c-0.737,-0.918 -1.266,-1.991 -2.003,-2.909Z" style="fill-opacity:0.16;"/><path d="M394.471,1043.655c1.133,1.598 1.281,1.41 2.424,3.022c2.692,3.796 1.529,4.246 2.129,5.914c-0.47,-1.147 -1.479,0.908 -1.928,-0.188c-0.621,-1.516 1.015,-1.402 0.63,-2.98c-0.292,-1.196 -1.494,-1.967 -2.099,-3.039c-0.485,-0.86 -0.67,-1.868 -1.155,-2.728Z" style="fill-opacity:0.18;"/><path d="M2388.721,2015.808c-0.263,-1.44 -2.785,-1.722 -3.047,-3.162c-0.158,-0.868 1.363,-1.74 2.203,-1.468c0.358,0.116 0.053,0.291 0.845,4.63Z" style="fill-opacity:0.18;"/></g></svg>